<?xml version="1.0" encoding="UTF-8"?>
<svg version="1.1" xmlns="http://www.w3.org/2000/svg" width="500" height="500">
<path d="M0 0 C1.21694531 0.58958022 2.43443612 1.17803525 3.65234375 1.765625 C7.10594715 3.45209079 10.52742143 5.19660147 13.94580078 6.953125 C15.89186267 7.94489032 17.84683669 8.91472068 19.80859375 9.875 C28.53645382 14.15527822 37.08750994 18.7136698 45.58447266 23.43652344 C51.44537945 26.67535882 57.38741758 29.724645 63.38383484 32.70266724 C71.80196908 36.88540276 80.16740901 41.17071371 88.53491211 45.45361328 C91.29797444 46.86756678 94.06203853 48.27954785 96.82617188 49.69140625 C106.31506224 54.5431603 115.77663082 59.44159641 125.20045471 64.4185791 C132.18257811 68.10418493 139.19587178 71.72704142 146.21960449 75.33258057 C149.7830331 77.16207005 153.34472769 78.99492783 156.90625 80.828125 C157.60820496 81.18943512 158.31015991 81.55074524 159.03338623 81.92300415 C165.85872989 85.43841098 172.66553193 88.98887015 179.46875 92.546875 C186.43451214 96.18806884 193.41188733 99.80651701 200.39425659 103.41574097 C202.24807148 104.37400312 204.10171488 105.33259629 205.95532227 106.29125977 C211.94617545 109.38928619 217.93863218 112.48414674 223.93359375 115.57421875 C229.50504519 118.44846286 235.06841583 121.33780137 240.62548828 124.23974609 C242.93456593 125.4442353 245.24509222 126.64542109 247.55810547 127.84228516 C251.08880332 129.67074806 254.60709821 131.52203643 258.125 133.375 C259.18549561 133.92164307 260.24599121 134.46828613 261.33862305 135.03149414 C272.13371093 140.76538355 280.40449381 147.55056045 285.25 158.9375 C287.65705759 168.76631848 287.32256002 177.99097162 282.2890625 187.0078125 C277.81403578 193.92376289 272.89035239 198.36746432 265.70703125 202.265625 C265.00606827 202.65264084 264.30510529 203.03965668 263.582901 203.43840027 C256.7879359 207.16702364 249.91091644 210.73590201 243.00671387 214.25714111 C240.12898357 215.72486675 237.25490413 217.19968106 234.38058472 218.67407227 C232.93521746 219.41545009 231.48968318 220.15650238 230.04397583 220.8972168 C224.09780775 223.94487732 218.16974119 227.0263147 212.25 230.125 C203.76183631 234.56464584 195.25972694 238.97685723 186.75 243.375 C186.1383197 243.69115265 185.5266394 244.0073053 184.89642334 244.33303833 C183.97872162 244.80735794 183.97872162 244.80735794 183.04248047 245.29125977 C181.80696405 245.9298462 180.57144972 246.56843669 179.3359375 247.20703125 C178.72394501 247.52334 178.11195251 247.83964874 177.48141479 248.1655426 C171.10984986 251.4592052 164.74208626 254.76018872 158.375 258.0625 C156.71645996 258.92270752 156.71645996 258.92270752 155.02441406 259.80029297 C152.79718063 260.95552806 150.56996704 262.11080141 148.34277344 263.26611328 C142.72884391 266.17804196 137.11439439 269.08896774 131.5 272 C129.24999754 273.16666192 126.99999754 274.33332858 124.75 275.5 C84.24999999 296.5 84.24999999 296.5 80.87402344 298.25048828 C78.62725893 299.41548933 76.38051409 300.5805283 74.13378906 301.74560547 C68.45944783 304.68806975 62.78475105 307.6298446 57.109375 310.5703125 C54.82289787 311.75517206 52.53643942 312.94006767 50.25 314.125 C48.57587036 314.9924585 48.57587036 314.9924585 46.86791992 315.87744141 C40.48626174 319.18603478 34.11180712 322.50798227 27.74316406 325.84155273 C20.18583159 329.7958684 12.62306637 333.7360692 5 337.5625 C4.38358643 337.87300293 3.76717285 338.18350586 3.13208008 338.50341797 C0.27845114 339.92527616 -2.51047593 341.18511141 -5.51171875 342.2734375 C-9.97689344 344.48352397 -12.55767005 347.36100751 -15.8125 351.0625 C-17.12808869 352.50194014 -18.44589204 353.93935854 -19.765625 355.375 C-20.45333984 356.1278125 -21.14105469 356.880625 -21.84960938 357.65625 C-48.23468725 386.41382806 -48.23468725 386.41382806 -68.3671875 387.30078125 C-69.86967123 387.32020212 -71.372433 387.32376724 -72.875 387.3125 C-73.66511475 387.30686035 -74.45522949 387.3012207 -75.26928711 387.29541016 C-87.22416022 387.04719509 -96.39624322 383.05352486 -104.75 374.375 C-111.19145066 366.4130009 -113.91931743 355.68312449 -117.1171875 346.08984375 C-117.49064301 344.98195999 -117.86409851 343.87407623 -118.24887085 342.73262024 C-119.04661703 340.36526596 -119.84256446 337.99730488 -120.63684082 335.62878418 C-122.76140584 329.29488675 -124.90028672 322.96582794 -127.0390625 316.63671875 C-127.25348495 316.00176609 -127.46790741 315.36681343 -127.68882751 314.71261978 C-131.46572512 303.53086256 -135.3331971 292.3833554 -139.25 281.25 C-146.34309655 261.07035575 -153.17308122 240.80319198 -160.00534058 220.53421021 C-165.71560955 203.59549075 -171.46210148 186.67310854 -177.3913269 169.80941772 C-179.67921272 163.29745118 -181.94883149 156.77909494 -184.2142334 150.25927734 C-184.7409234 148.74491064 -185.2686857 147.23091648 -185.79748535 145.71728516 C-187.31387724 141.37460385 -188.8090354 137.02583684 -190.27011108 132.66421509 C-190.9027387 130.79045823 -191.55589113 128.9236677 -192.21020508 127.05737305 C-195.79618747 116.19867427 -196.82905419 105.27505231 -192.3203125 94.5234375 C-185.70963246 81.88882417 -175.11823776 73.81939463 -161.828125 69.25390625 C-149.10573907 65.78633866 -135.10762405 68.41224131 -122.34765625 70.40625 C-120.71014189 70.65383599 -119.07247882 70.90044016 -117.43467712 71.14611816 C-113.17707375 71.78741581 -108.92158852 72.44180155 -104.66644287 73.09918213 C-100.30294601 73.77084338 -95.93752672 74.42976426 -91.57226562 75.08984375 C-83.046274 76.38095254 -74.52248297 77.68593095 -66 79 C-66.00888245 78.37074615 -66.01776489 77.74149231 -66.0269165 77.09317017 C-66.11584593 70.50637962 -66.17592259 63.91976138 -66.21972656 57.33251953 C-66.23976324 54.87867294 -66.26700032 52.42487363 -66.30175781 49.97119141 C-66.35062498 46.43119597 -66.3730492 42.89183532 -66.390625 39.3515625 C-66.41127014 38.26573883 -66.43191528 37.17991516 -66.45318604 36.06118774 C-66.45625655 25.48827837 -63.30356882 16.45701747 -55.83984375 8.77734375 C-41.38786477 -4.9598542 -18.14761633 -9.18997356 0 0 Z " fill="#FEFEFE" transform="translate(203,60)"/>
<path d="M0 0 C1.21694531 0.58958022 2.43443612 1.17803525 3.65234375 1.765625 C7.10594715 3.45209079 10.52742143 5.19660147 13.94580078 6.953125 C15.89186267 7.94489032 17.84683669 8.91472068 19.80859375 9.875 C28.53645382 14.15527822 37.08750994 18.7136698 45.58447266 23.43652344 C51.44537945 26.67535882 57.38741758 29.724645 63.38383484 32.70266724 C71.80196908 36.88540276 80.16740901 41.17071371 88.53491211 45.45361328 C91.29797444 46.86756678 94.06203853 48.27954785 96.82617188 49.69140625 C106.31506224 54.5431603 115.77663082 59.44159641 125.20045471 64.4185791 C132.18257811 68.10418493 139.19587178 71.72704142 146.21960449 75.33258057 C149.7830331 77.16207005 153.34472769 78.99492783 156.90625 80.828125 C157.60820496 81.18943512 158.31015991 81.55074524 159.03338623 81.92300415 C165.85872989 85.43841098 172.66553193 88.98887015 179.46875 92.546875 C186.43451214 96.18806884 193.41188733 99.80651701 200.39425659 103.41574097 C202.24807148 104.37400312 204.10171488 105.33259629 205.95532227 106.29125977 C211.94617545 109.38928619 217.93863218 112.48414674 223.93359375 115.57421875 C229.50504519 118.44846286 235.06841583 121.33780137 240.62548828 124.23974609 C242.93456593 125.4442353 245.24509222 126.64542109 247.55810547 127.84228516 C251.08880332 129.67074806 254.60709821 131.52203643 258.125 133.375 C259.18549561 133.92164307 260.24599121 134.46828613 261.33862305 135.03149414 C272.13371093 140.76538355 280.40449381 147.55056045 285.25 158.9375 C287.65705759 168.76631848 287.32256002 177.99097162 282.2890625 187.0078125 C277.81403578 193.92376289 272.89035239 198.36746432 265.70703125 202.265625 C265.00606827 202.65264084 264.30510529 203.03965668 263.582901 203.43840027 C256.7879359 207.16702364 249.91091644 210.73590201 243.00671387 214.25714111 C240.12898357 215.72486675 237.25490413 217.19968106 234.38058472 218.67407227 C232.93521746 219.41545009 231.48968318 220.15650238 230.04397583 220.8972168 C224.09780775 223.94487732 218.16974119 227.0263147 212.25 230.125 C203.76183631 234.56464584 195.25972694 238.97685723 186.75 243.375 C186.1383197 243.69115265 185.5266394 244.0073053 184.89642334 244.33303833 C183.97872162 244.80735794 183.97872162 244.80735794 183.04248047 245.29125977 C181.80696405 245.9298462 180.57144972 246.56843669 179.3359375 247.20703125 C178.72394501 247.52334 178.11195251 247.83964874 177.48141479 248.1655426 C171.10984986 251.4592052 164.74208626 254.76018872 158.375 258.0625 C156.71645996 258.92270752 156.71645996 258.92270752 155.02441406 259.80029297 C152.79718063 260.95552806 150.56996704 262.11080141 148.34277344 263.26611328 C142.72884391 266.17804196 137.11439439 269.08896774 131.5 272 C129.24999754 273.16666192 126.99999754 274.33332858 124.75 275.5 C84.24999999 296.5 84.24999999 296.5 80.87402344 298.25048828 C78.62725893 299.41548933 76.38051409 300.5805283 74.13378906 301.74560547 C68.45944783 304.68806975 62.78475105 307.6298446 57.109375 310.5703125 C54.82289787 311.75517206 52.53643942 312.94006767 50.25 314.125 C48.57587036 314.9924585 48.57587036 314.9924585 46.86791992 315.87744141 C40.48626174 319.18603478 34.11180712 322.50798227 27.74316406 325.84155273 C20.18583159 329.7958684 12.62306637 333.7360692 5 337.5625 C4.38358643 337.87300293 3.76717285 338.18350586 3.13208008 338.50341797 C0.27845114 339.92527616 -2.51047593 341.18511141 -5.51171875 342.2734375 C-9.97689344 344.48352397 -12.55767005 347.36100751 -15.8125 351.0625 C-17.12808869 352.50194014 -18.44589204 353.93935854 -19.765625 355.375 C-20.45333984 356.1278125 -21.14105469 356.880625 -21.84960938 357.65625 C-48.23468725 386.41382806 -48.23468725 386.41382806 -68.3671875 387.30078125 C-69.86967123 387.32020212 -71.372433 387.32376724 -72.875 387.3125 C-73.66511475 387.30686035 -74.45522949 387.3012207 -75.26928711 387.29541016 C-87.22416022 387.04719509 -96.39624322 383.05352486 -104.75 374.375 C-111.19145066 366.4130009 -113.91931743 355.68312449 -117.1171875 346.08984375 C-117.49064301 344.98195999 -117.86409851 343.87407623 -118.24887085 342.73262024 C-119.04661703 340.36526596 -119.84256446 337.99730488 -120.63684082 335.62878418 C-122.76140584 329.29488675 -124.90028672 322.96582794 -127.0390625 316.63671875 C-127.25348495 316.00176609 -127.46790741 315.36681343 -127.68882751 314.71261978 C-131.46572512 303.53086256 -135.3331971 292.3833554 -139.25 281.25 C-146.34309655 261.07035575 -153.17308122 240.80319198 -160.00534058 220.53421021 C-165.71560955 203.59549075 -171.46210148 186.67310854 -177.3913269 169.80941772 C-179.67921272 163.29745118 -181.94883149 156.77909494 -184.2142334 150.25927734 C-184.7409234 148.74491064 -185.2686857 147.23091648 -185.79748535 145.71728516 C-187.31387724 141.37460385 -188.8090354 137.02583684 -190.27011108 132.66421509 C-190.9027387 130.79045823 -191.55589113 128.9236677 -192.21020508 127.05737305 C-195.79618747 116.19867427 -196.82905419 105.27505231 -192.3203125 94.5234375 C-185.70963246 81.88882417 -175.11823776 73.81939463 -161.828125 69.25390625 C-149.10573907 65.78633866 -135.10762405 68.41224131 -122.34765625 70.40625 C-120.71014189 70.65383599 -119.07247882 70.90044016 -117.43467712 71.14611816 C-113.17707375 71.78741581 -108.92158852 72.44180155 -104.66644287 73.09918213 C-100.30294601 73.77084338 -95.93752672 74.42976426 -91.57226562 75.08984375 C-83.046274 76.38095254 -74.52248297 77.68593095 -66 79 C-66.00888245 78.37074615 -66.01776489 77.74149231 -66.0269165 77.09317017 C-66.11584593 70.50637962 -66.17592259 63.91976138 -66.21972656 57.33251953 C-66.23976324 54.87867294 -66.26700032 52.42487363 -66.30175781 49.97119141 C-66.35062498 46.43119597 -66.3730492 42.89183532 -66.390625 39.3515625 C-66.41127014 38.26573883 -66.43191528 37.17991516 -66.45318604 36.06118774 C-66.45625655 25.48827837 -63.30356882 16.45701747 -55.83984375 8.77734375 C-41.38786477 -4.9598542 -18.14761633 -9.18997356 0 0 Z M-183.984375 87.4296875 C-191.01591699 96.39626623 -192.91705486 104.81009327 -192 116 C-190.92785465 120.79352324 -189.36072746 125.35253956 -187.71484375 129.9765625 C-187.26135725 131.29581389 -186.80962961 132.61567099 -186.35952759 133.93608093 C-185.15755104 137.4462534 -183.93150089 140.94754947 -182.70042801 144.44760513 C-181.40988056 148.13082473 -180.14269621 151.82207136 -178.87280273 155.51245117 C-176.15325765 163.40231606 -173.40337365 171.28136456 -170.64482117 179.15766144 C-169.71311853 181.81965795 -168.78464304 184.48277575 -167.85644531 187.14599609 C-165.52249575 193.84189886 -163.18700511 200.53722207 -160.83569336 207.22705078 C-154.91390616 224.102748 -149.21445811 241.05331658 -143.5 258 C-136.12160724 279.8802285 -128.68529243 301.73577914 -121.02148438 323.5181427 C-120.60286133 324.70799019 -120.60286133 324.70799019 -120.17578125 325.921875 C-119.76924316 327.07673653 -119.76924316 327.07673653 -119.35449219 328.25492859 C-117.54384966 333.41201174 -115.78099383 338.58366058 -114.04296875 343.765625 C-113.58320145 345.12902549 -113.12332522 346.49238925 -112.66333008 347.85571289 C-111.84081559 350.29429859 -111.03121506 352.73584994 -110.22924805 355.18139648 C-106.46957479 366.33132876 -101.68643002 374.40207509 -91.4140625 380.546875 C-81.1264193 385.56386264 -69.43061535 385.68998499 -58.5625 382.375 C-48.50342753 378.47849116 -40.30899383 372.77355443 -33.3515625 364.60546875 C-30.19393603 361.10690255 -26.84980785 357.81358271 -23.5 354.5 C-17.82487237 348.91467204 -17.82487237 348.91467204 -12.5 343 C-8.4619844 338.20485648 -3.91874941 333.8954922 0.53125 329.48828125 C3.63005448 326.40792204 6.68329772 323.34483396 9.5 320 C13.5380156 315.20485648 18.08125059 310.8954922 22.53125 306.48828125 C25.63005448 303.40792204 28.68329772 300.34483396 31.5 297 C35.5380156 292.20485648 40.08125059 287.8954922 44.53125 283.48828125 C47.63005448 280.40792204 50.68329772 277.34483396 53.5 274 C57.5380156 269.20485648 62.08125059 264.8954922 66.53125 260.48828125 C69.63005448 257.40792204 72.68329772 254.34483396 75.5 251 C79.5380156 246.20485648 84.08125059 241.8954922 88.53125 237.48828125 C91.63005448 234.40792204 94.68329772 231.34483396 97.5 228 C101.5380156 223.20485648 106.08125059 218.8954922 110.53125 214.48828125 C113.63005448 211.40792204 116.68329772 208.34483396 119.5 205 C123.53469876 200.20879522 128.07380143 195.90274288 132.52026367 191.49926758 C136.29129358 187.75078212 139.91118906 183.95633238 143.328125 179.87890625 C145.45099669 177.49315559 147.75567544 175.33286316 150.0625 173.125 C154.71565887 168.51427115 158.06797568 163.84469534 161 158 C161.33902344 157.34515625 161.67804688 156.6903125 162.02734375 156.015625 C164.89702448 149.61504678 165.17972875 142.24569048 163.30859375 135.51171875 C162.35857357 133.21020542 161.27771515 131.13618001 160 129 C159.5875 128.30003906 159.175 127.60007813 158.75 126.87890625 C152.27214658 117.14372313 142.11388624 113.7102191 131.06347656 111.38183594 C126.19516163 110.4809788 121.28853882 109.96961108 116.36328125 109.4921875 C111.93617491 109.03987767 107.57323318 108.28547171 103.18823242 107.53515625 C97.80407908 106.6314068 92.40171651 105.853148 87 105.0625 C84.58983096 104.70711796 82.17967477 104.35164877 79.76953125 103.99609375 C76.65419421 103.53751269 73.53882814 103.07913432 70.42333984 102.62158203 C68.17778664 102.29119848 65.9325332 101.95889829 63.6875 101.625 C62.93879639 101.51365723 62.19009277 101.40231445 61.41870117 101.28759766 C55.5783161 100.4092483 49.74588299 99.48391908 43.9140625 98.55078125 C42.23999247 98.2836774 40.56592017 98.01658774 38.8918457 97.74951172 C35.59023886 97.22260958 32.28943316 96.69102085 28.98901367 96.15673828 C20.65454027 94.8188251 12.32965995 93.64216205 3.94075012 92.70240784 C-1.12451 92.12736451 -6.13159078 91.3672811 -11.15234375 90.49121094 C-16.25412979 89.61117034 -21.37815829 88.8777503 -26.5 88.125 C-28.22585327 87.87000732 -28.22585327 87.87000732 -29.98657227 87.60986328 C-39.772365 86.1688886 -49.56395607 84.76900595 -59.359375 83.39501953 C-65.58246335 82.51562997 -71.78222941 81.54962156 -77.97875977 80.5 C-83.30872029 79.61791845 -88.65465593 78.84487812 -94 78.0625 C-96.37501325 77.71232941 -98.75001313 77.3620682 -101.125 77.01171875 C-104.42053885 76.52662348 -107.71610953 76.04174589 -111.01171875 75.55712891 C-113.6747403 75.16482535 -116.3374318 74.77036737 -119 74.375 C-120.22529419 74.19469238 -120.22529419 74.19469238 -121.4753418 74.01074219 C-125.61891132 73.39228612 -129.71057772 72.67132121 -133.8125 71.8125 C-153.31057218 68.20627348 -170.33438214 72.94498284 -183.984375 87.4296875 Z " fill="#000000" transform="translate(203,60)"/>
</svg>
