<?xml version="1.0" encoding="UTF-8"?>
<svg version="1.1" xmlns="http://www.w3.org/2000/svg" width="500" height="500">
<path d="M0 0 C4.3574181 2.35128006 8.73778838 4.65799595 13.12011719 6.96240234 C13.8887207 7.36869873 14.65732422 7.77499512 15.44921875 8.19360352 C20.26300091 10.73237195 25.11317678 13.18280978 29.99511719 15.58740234 C36.11434959 18.60418623 42.09419347 21.83657505 48.05761719 25.14990234 C56.61044248 29.89975609 65.27133001 34.35070582 74.05761719 38.64990234 C83.72706581 43.38123642 93.21398337 48.34947376 102.62597656 53.57617188 C110.93835674 58.17481571 119.41177212 62.39925466 127.94335938 66.57226562 C137.4065163 71.21082806 146.67497309 76.14064989 155.91015625 81.21826172 C163.85984969 85.57554419 171.915166 89.66764214 180.05761719 93.64990234 C190.15629121 98.58890005 200.06208215 103.80125128 209.91235352 109.22045898 C215.34843358 112.20150471 220.81043981 115.09394714 226.37011719 117.83740234 C227.31491943 118.30641968 227.31491943 118.30641968 228.27880859 118.78491211 C230.92586213 120.09891465 233.57320919 121.41211594 236.22607422 122.71435547 C249.23771462 129.1422362 261.57758381 136.29727218 267.74511719 150.14990234 C268.36966797 151.52662109 268.36966797 151.52662109 269.00683594 152.93115234 C272.88145669 162.95619339 272.58539747 176.40288656 268.30761719 186.23583984 C261.09630979 200.16267726 250.07923499 207.7442593 236.43261719 214.71240234 C235.07905988 215.41728434 233.72611806 216.12334941 232.3737793 216.83056641 C224.63851652 220.86323099 216.86027661 224.812155 209.03417969 228.66552734 C197.27087142 234.48870349 185.68195296 240.68789963 174.12011719 246.89990234 C169.22466539 249.52967388 164.28611847 252.05704227 159.30761719 254.52490234 C150.13813077 259.07040221 141.10038337 263.85850479 132.05761719 268.64990234 C122.45671684 273.73703271 112.848927 278.7884885 103.11328125 283.61352539 C93.18795938 288.55030061 83.41796572 293.79241804 73.63574219 299.00537109 C66.93896501 302.57058376 60.23068919 306.09367622 53.43261719 309.46240234 C40.19969243 316.02034155 27.12974156 322.91070799 14.12011719 329.89990234 C7.84670813 333.2668791 1.50101975 336.47338065 -4.87988281 339.63037109 C-7.66211729 341.00733452 -10.43087162 342.40762736 -13.19238281 343.82568359 C-14.58780258 344.53873309 -15.98362973 345.25098597 -17.37988281 345.96240234 C-18.38704346 346.47673828 -18.38704346 346.47673828 -19.41455078 347.00146484 C-22.89604545 348.74525165 -26.24455953 350.14927395 -30.00488281 351.14990234 C-33.33401469 352.14550681 -34.86942433 353.39952806 -37.05175781 356.08349609 C-41.50682519 361.36607698 -46.28382908 366.28903666 -51.12988281 371.21240234 C-52.4340918 372.57268555 -52.4340918 372.57268555 -53.76464844 373.96044922 C-66.09502582 386.45390286 -79.87998449 392.963399 -97.44238281 393.14990234 C-111.51508732 393.00024579 -122.55496197 389.544911 -132.93847656 379.77099609 C-141.62396436 370.52515424 -144.95171823 358.32561154 -148.86914062 346.55981445 C-150.52198967 341.59658623 -152.19908014 336.64152581 -153.87207031 331.68505859 C-154.21461853 330.66795807 -154.55716675 329.65085754 -154.91009521 328.60293579 C-157.89043982 319.76570342 -160.96283444 310.96256869 -164.05792236 302.16500854 C-171.2764466 281.63796849 -178.24475051 261.02888048 -185.19744873 240.4107666 C-191.36312473 222.12779338 -197.55351873 203.85644322 -203.94238281 185.64990234 C-204.23292542 184.82191132 -204.52346802 183.99392029 -204.82281494 183.14083862 C-205.10993347 182.32261627 -205.397052 181.50439392 -205.69287109 180.66137695 C-210.29811318 167.53332635 -214.8246535 154.37937293 -219.31738281 141.21240234 C-219.64738281 140.24713623 -219.97738281 139.28187012 -220.31738281 138.28735352 C-221.24370232 135.5767951 -222.1676971 132.86545698 -223.09082031 130.15380859 C-223.5036879 128.94622643 -223.5036879 128.94622643 -223.92489624 127.71424866 C-224.17736115 126.97057541 -224.42982605 126.22690216 -224.68994141 125.46069336 C-224.90895111 124.81761734 -225.12796082 124.17454132 -225.35360718 123.51197815 C-228.52565534 113.47998329 -228.47637769 100.25035413 -223.94238281 90.64990234 C-216.66904383 76.87195127 -205.8394497 66.90899538 -191.00488281 61.77490234 C-172.54360825 56.154707 -152.51434094 60.82347418 -133.94061279 63.76367188 C-131.15887724 64.20066875 -128.3751667 64.62423366 -125.59130001 65.0474081 C-122.25834686 65.55454372 -118.92651471 66.06875718 -115.59472656 66.58349609 C-114.35222641 66.77519882 -113.10972626 66.96690155 -111.82957458 67.16441345 C-110.68980667 67.34452469 -109.55003876 67.52463593 -108.37573242 67.71020508 C-107.37158798 67.8678685 -106.36744354 68.02553192 -105.33287048 68.18797302 C-102.94238281 68.64990234 -102.94238281 68.64990234 -100.94238281 69.64990234 C-100.95809326 68.48120605 -100.97380371 67.31250977 -100.98999023 66.10839844 C-101.04494444 61.70628962 -101.07896716 57.30421006 -101.10717773 52.90185547 C-101.12211705 51.00889968 -101.14247597 49.1159776 -101.16870117 47.22314453 C-101.41862585 28.69931563 -100.40410437 13.69968079 -87.25488281 -0.60009766 C-60.45259339 -25.65664409 -28.1394048 -15.19767125 0 0 Z " fill="#000000" transform="translate(227.9423828125,61.35009765625)"/>
<path d="M0 0 C4.3574181 2.35128006 8.73778838 4.65799595 13.12011719 6.96240234 C13.8887207 7.36869873 14.65732422 7.77499512 15.44921875 8.19360352 C20.26300091 10.73237195 25.11317678 13.18280978 29.99511719 15.58740234 C36.11434959 18.60418623 42.09419347 21.83657505 48.05761719 25.14990234 C56.61044248 29.89975609 65.27133001 34.35070582 74.05761719 38.64990234 C83.72706581 43.38123642 93.21398337 48.34947376 102.62597656 53.57617188 C110.93835674 58.17481571 119.41177212 62.39925466 127.94335938 66.57226562 C137.4065163 71.21082806 146.67497309 76.14064989 155.91015625 81.21826172 C163.85984969 85.57554419 171.915166 89.66764214 180.05761719 93.64990234 C190.15629121 98.58890005 200.06208215 103.80125128 209.91235352 109.22045898 C215.34843358 112.20150471 220.81043981 115.09394714 226.37011719 117.83740234 C227.31491943 118.30641968 227.31491943 118.30641968 228.27880859 118.78491211 C230.92586213 120.09891465 233.57320919 121.41211594 236.22607422 122.71435547 C249.23771462 129.1422362 261.57758381 136.29727218 267.74511719 150.14990234 C268.36966797 151.52662109 268.36966797 151.52662109 269.00683594 152.93115234 C272.88145669 162.95619339 272.58539747 176.40288656 268.30761719 186.23583984 C261.09630979 200.16267726 250.07923499 207.7442593 236.43261719 214.71240234 C235.07905988 215.41728434 233.72611806 216.12334941 232.3737793 216.83056641 C224.63851652 220.86323099 216.86027661 224.812155 209.03417969 228.66552734 C197.27087142 234.48870349 185.68195296 240.68789963 174.12011719 246.89990234 C169.22466539 249.52967388 164.28611847 252.05704227 159.30761719 254.52490234 C150.13813077 259.07040221 141.10038337 263.85850479 132.05761719 268.64990234 C122.45671684 273.73703271 112.848927 278.7884885 103.11328125 283.61352539 C93.18795938 288.55030061 83.41796572 293.79241804 73.63574219 299.00537109 C66.93896501 302.57058376 60.23068919 306.09367622 53.43261719 309.46240234 C40.19969243 316.02034155 27.12974156 322.91070799 14.12011719 329.89990234 C7.84670813 333.2668791 1.50101975 336.47338065 -4.87988281 339.63037109 C-7.66211729 341.00733452 -10.43087162 342.40762736 -13.19238281 343.82568359 C-14.58780258 344.53873309 -15.98362973 345.25098597 -17.37988281 345.96240234 C-18.38704346 346.47673828 -18.38704346 346.47673828 -19.41455078 347.00146484 C-22.89604545 348.74525165 -26.24455953 350.14927395 -30.00488281 351.14990234 C-33.33401469 352.14550681 -34.86942433 353.39952806 -37.05175781 356.08349609 C-41.50682519 361.36607698 -46.28382908 366.28903666 -51.12988281 371.21240234 C-52.4340918 372.57268555 -52.4340918 372.57268555 -53.76464844 373.96044922 C-66.09502582 386.45390286 -79.87998449 392.963399 -97.44238281 393.14990234 C-111.51508732 393.00024579 -122.55496197 389.544911 -132.93847656 379.77099609 C-141.62396436 370.52515424 -144.95171823 358.32561154 -148.86914062 346.55981445 C-150.52198967 341.59658623 -152.19908014 336.64152581 -153.87207031 331.68505859 C-154.21461853 330.66795807 -154.55716675 329.65085754 -154.91009521 328.60293579 C-157.89043982 319.76570342 -160.96283444 310.96256869 -164.05792236 302.16500854 C-171.2764466 281.63796849 -178.24475051 261.02888048 -185.19744873 240.4107666 C-191.36312473 222.12779338 -197.55351873 203.85644322 -203.94238281 185.64990234 C-204.23292542 184.82191132 -204.52346802 183.99392029 -204.82281494 183.14083862 C-205.10993347 182.32261627 -205.397052 181.50439392 -205.69287109 180.66137695 C-210.29811318 167.53332635 -214.8246535 154.37937293 -219.31738281 141.21240234 C-219.64738281 140.24713623 -219.97738281 139.28187012 -220.31738281 138.28735352 C-221.24370232 135.5767951 -222.1676971 132.86545698 -223.09082031 130.15380859 C-223.5036879 128.94622643 -223.5036879 128.94622643 -223.92489624 127.71424866 C-224.17736115 126.97057541 -224.42982605 126.22690216 -224.68994141 125.46069336 C-224.90895111 124.81761734 -225.12796082 124.17454132 -225.35360718 123.51197815 C-228.52565534 113.47998329 -228.47637769 100.25035413 -223.94238281 90.64990234 C-216.66904383 76.87195127 -205.8394497 66.90899538 -191.00488281 61.77490234 C-172.54360825 56.154707 -152.51434094 60.82347418 -133.94061279 63.76367188 C-131.15887724 64.20066875 -128.3751667 64.62423366 -125.59130001 65.0474081 C-122.25834686 65.55454372 -118.92651471 66.06875718 -115.59472656 66.58349609 C-114.35222641 66.77519882 -113.10972626 66.96690155 -111.82957458 67.16441345 C-110.68980667 67.34452469 -109.55003876 67.52463593 -108.37573242 67.71020508 C-107.37158798 67.8678685 -106.36744354 68.02553192 -105.33287048 68.18797302 C-102.94238281 68.64990234 -102.94238281 68.64990234 -100.94238281 69.64990234 C-100.95809326 68.48120605 -100.97380371 67.31250977 -100.98999023 66.10839844 C-101.04494444 61.70628962 -101.07896716 57.30421006 -101.10717773 52.90185547 C-101.12211705 51.00889968 -101.14247597 49.1159776 -101.16870117 47.22314453 C-101.41862585 28.69931563 -100.40410437 13.69968079 -87.25488281 -0.60009766 C-60.45259339 -25.65664409 -28.1394048 -15.19767125 0 0 Z M-208.92675781 86.07958984 C-215.9582998 95.04616858 -217.85943767 103.45999562 -216.94238281 114.64990234 C-215.87023746 119.44342558 -214.30311027 124.0024419 -212.65722656 128.62646484 C-212.20374006 129.94571623 -211.75201242 131.26557334 -211.3019104 132.58598328 C-210.09993385 136.09615574 -208.8738837 139.59745181 -207.64281082 143.09750748 C-206.35226337 146.78072707 -205.08507903 150.4719737 -203.81518555 154.16235352 C-201.09564046 162.0522184 -198.34575646 169.93126691 -195.58720398 177.80756378 C-194.65550134 180.46956029 -193.72702585 183.13267809 -192.79882812 185.79589844 C-190.46487856 192.4918012 -188.12938792 199.18712441 -185.77807617 205.87695312 C-179.85628897 222.75265035 -174.15684092 239.70321892 -168.44238281 256.64990234 C-161.06399006 278.53013084 -153.62767524 300.38568149 -145.96386719 322.16804504 C-145.54524414 323.35789253 -145.54524414 323.35789253 -145.11816406 324.57177734 C-144.71162598 325.72663887 -144.71162598 325.72663887 -144.296875 326.90483093 C-142.48623247 332.06191408 -140.72337664 337.23356292 -138.98535156 342.41552734 C-138.52558426 343.77892783 -138.06570803 345.1422916 -137.60571289 346.50561523 C-136.78319841 348.94420094 -135.97359787 351.38575228 -135.17163086 353.83129883 C-131.549568 364.57312474 -126.83954042 373.29921451 -116.60253906 378.93896484 C-106.33941956 383.68629799 -94.45287564 384.40358275 -83.62988281 381.02490234 C-73.49840733 377.17439549 -65.28324673 371.46087254 -58.29394531 363.25537109 C-55.13631884 359.75680489 -51.79219066 356.46348505 -48.44238281 353.14990234 C-42.76725518 347.56457438 -42.76725518 347.56457438 -37.44238281 341.64990234 C-33.40436721 336.85475882 -28.86113222 332.54539455 -24.41113281 328.13818359 C-21.31232834 325.05782438 -18.2590851 321.9947363 -15.44238281 318.64990234 C-11.40436721 313.85475882 -6.86113222 309.54539455 -2.41113281 305.13818359 C0.68767166 302.05782438 3.7409149 298.9947363 6.55761719 295.64990234 C10.59563279 290.85475882 15.13886778 286.54539455 19.58886719 282.13818359 C22.68767166 279.05782438 25.7409149 275.9947363 28.55761719 272.64990234 C32.59563279 267.85475882 37.13886778 263.54539455 41.58886719 259.13818359 C44.68767166 256.05782438 47.7409149 252.9947363 50.55761719 249.64990234 C54.59563279 244.85475882 59.13886778 240.54539455 63.58886719 236.13818359 C66.68767166 233.05782438 69.7409149 229.9947363 72.55761719 226.64990234 C76.59563279 221.85475882 81.13886778 217.54539455 85.58886719 213.13818359 C88.68767166 210.05782438 91.7409149 206.9947363 94.55761719 203.64990234 C98.59231595 198.85869756 103.13141862 194.55264522 107.57788086 190.14916992 C111.34891077 186.40068447 114.96880625 182.60623473 118.38574219 178.52880859 C120.50861388 176.14305793 122.81329262 173.9827655 125.12011719 171.77490234 C129.77327606 167.16417349 133.12559287 162.49459768 136.05761719 156.64990234 C136.39664062 155.99505859 136.73566406 155.34021484 137.08496094 154.66552734 C139.95464167 148.26494912 140.23734594 140.89559283 138.36621094 134.16162109 C137.41619075 131.86010776 136.33533233 129.78608235 135.05761719 127.64990234 C134.64511719 126.94994141 134.23261719 126.24998047 133.80761719 125.52880859 C127.32976377 115.79362547 117.17150343 112.36012144 106.12109375 110.03173828 C101.25277882 109.13088114 96.34615601 108.61951343 91.42089844 108.14208984 C86.97753089 107.68857799 82.5985284 106.92940719 78.19750977 106.17626953 C73.05877666 105.31481952 67.90148577 104.58452186 62.74511719 103.83740234 C54.25884447 102.59785418 45.788639 101.29029936 37.32763672 99.88867188 C20.985702 97.1833101 4.60227808 94.88896513 -11.81713867 92.70507812 C-19.96424231 91.61921758 -28.09352405 90.51908666 -36.19360352 89.11694336 C-41.42951878 88.22731676 -46.68766929 87.48154292 -51.94238281 86.71240234 C-54.34343649 86.35831712 -56.74447809 86.00414997 -59.14550781 85.64990234 C-62.30752637 85.18443641 -65.46958559 84.71925967 -68.63183594 84.25537109 C-76.8394221 83.04973697 -85.03776522 81.8049113 -93.22363281 80.45849609 C-95.87982101 80.02191654 -98.53603401 79.58550228 -101.19238281 79.14990234 C-101.85585724 79.04109741 -102.51933167 78.93229248 -103.20291138 78.82019043 C-113.14909156 77.19576825 -123.10573356 75.80369013 -133.11206055 74.60522461 C-140.63427053 73.70406893 -148.1255427 72.70335908 -155.53222656 71.08349609 C-176.06047942 66.77286444 -194.18769704 70.4392196 -208.92675781 86.07958984 Z " fill="#FDFDFD" transform="translate(227.9423828125,61.35009765625)"/>
<path d="M0 0 C4.3574181 2.35128006 8.73778838 4.65799595 13.12011719 6.96240234 C13.8887207 7.36869873 14.65732422 7.77499512 15.44921875 8.19360352 C20.26300091 10.73237195 25.11317678 13.18280978 29.99511719 15.58740234 C36.11434959 18.60418623 42.09419347 21.83657505 48.05761719 25.14990234 C56.61044248 29.89975609 65.27133001 34.35070582 74.05761719 38.64990234 C83.72706581 43.38123642 93.21398337 48.34947376 102.62597656 53.57617188 C110.93835674 58.17481571 119.41177212 62.39925466 127.94335938 66.57226562 C137.4065163 71.21082806 146.67497309 76.14064989 155.91015625 81.21826172 C163.85984969 85.57554419 171.915166 89.66764214 180.05761719 93.64990234 C190.15629121 98.58890005 200.06208215 103.80125128 209.91235352 109.22045898 C215.34843358 112.20150471 220.81043981 115.09394714 226.37011719 117.83740234 C227.31491943 118.30641968 227.31491943 118.30641968 228.27880859 118.78491211 C230.92586213 120.09891465 233.57320919 121.41211594 236.22607422 122.71435547 C249.23771462 129.1422362 261.57758381 136.29727218 267.74511719 150.14990234 C268.36966797 151.52662109 268.36966797 151.52662109 269.00683594 152.93115234 C272.88145669 162.95619339 272.58539747 176.40288656 268.30761719 186.23583984 C261.09630979 200.16267726 250.07923499 207.7442593 236.43261719 214.71240234 C235.07905988 215.41728434 233.72611806 216.12334941 232.3737793 216.83056641 C224.63851652 220.86323099 216.86027661 224.812155 209.03417969 228.66552734 C197.27087142 234.48870349 185.68195296 240.68789963 174.12011719 246.89990234 C169.22466539 249.52967388 164.28611847 252.05704227 159.30761719 254.52490234 C150.13813077 259.07040221 141.10038337 263.85850479 132.05761719 268.64990234 C122.45671684 273.73703271 112.848927 278.7884885 103.11328125 283.61352539 C93.18795938 288.55030061 83.41796572 293.79241804 73.63574219 299.00537109 C66.93896501 302.57058376 60.23068919 306.09367622 53.43261719 309.46240234 C40.19969243 316.02034155 27.12974156 322.91070799 14.12011719 329.89990234 C7.84821186 333.26607204 1.50449593 336.47244146 -4.87597656 339.62646484 C-7.67431339 341.01105505 -10.45505064 342.42521049 -13.22753906 343.86083984 C-13.93338135 344.22306641 -14.63922363 344.58529297 -15.36645508 344.95849609 C-16.70231979 345.64473119 -18.03512402 346.33697445 -19.36401367 347.03662109 C-23.80870317 349.30535587 -28.06495293 350.58161571 -32.94238281 351.64990234 C-26.21837584 337.03524808 -10.48726316 328.87912378 3.30761719 322.33740234 C4.95876288 321.52972368 6.60850894 320.71917738 8.25683594 319.90576172 C10.72502974 318.68937359 13.19436496 317.47600288 15.66986084 316.27453613 C23.81973456 312.31696438 31.81306508 308.08024755 39.81506348 303.83401489 C43.30553818 301.99097547 46.8128194 300.18115146 50.32324219 298.37646484 C50.9786499 298.03945053 51.63405762 297.70243622 52.30932617 297.35520935 C53.6318193 296.67564348 54.95445147 295.99634815 56.27722168 295.31732178 C59.84065029 293.48783229 63.40234487 291.65497451 66.96386719 289.82177734 C67.66582214 289.46046722 68.3677771 289.0991571 69.09100342 288.72689819 C75.00713008 285.67978539 80.91065572 282.60894541 86.80761719 279.52490234 C95.29595964 275.08559681 103.79788877 270.67304587 112.30761719 266.27490234 C112.91929749 265.95874969 113.53097778 265.64259705 114.16119385 265.31686401 C115.07889557 264.8425444 115.07889557 264.8425444 116.01513672 264.35864258 C117.25065314 263.72005614 118.48616746 263.08146565 119.72167969 262.44287109 C120.63966843 261.96840797 120.63966843 261.96840797 121.57620239 261.48435974 C127.94776732 258.19069714 134.31553092 254.88971362 140.68261719 251.58740234 C141.78831055 251.01393066 142.89400391 250.44045898 144.03320312 249.84960938 C146.26043656 248.69437428 148.48765014 247.53910093 150.71484375 246.38378906 C156.32877328 243.47186038 161.94322279 240.56093461 167.55761719 237.64990234 C169.80761965 236.48324043 172.05761965 235.31657376 174.30761719 234.14990234 C187.80761719 227.14990234 187.80761719 227.14990234 191.18603516 225.3984375 C193.42497742 224.23730032 195.66358702 223.07552146 197.90185547 221.91308594 C203.69341115 218.90633774 209.49115993 215.91251194 215.29980469 212.93896484 C242.34026739 200.69012811 242.34026739 200.69012811 259.05761719 177.64990234 C261.37865654 170.03253157 260.97021432 161.80651498 257.31542969 154.73974609 C250.46208578 143.35297905 241.45930722 138.0611201 229.74511719 132.14990234 C228.55362836 131.54148864 227.36255583 130.93225909 226.171875 130.32226562 C223.70163013 129.05754869 221.22964995 127.79632429 218.75634766 126.53759766 C212.92352032 123.56546851 207.11694124 120.5426295 201.30761719 117.52490234 C199.04980747 116.35432406 196.791995 115.18375108 194.53417969 114.01318359 C188.57859463 110.92258921 182.62962836 107.81945485 176.68261719 104.71240234 C166.21907495 99.24631817 155.73445729 93.82130466 145.24719238 88.40093994 C144.63549194 88.08477722 144.0237915 87.7686145 143.39355469 87.44287109 C142.78153198 87.12654724 142.16950928 86.81022339 141.53894043 86.48431396 C131.82093362 81.460762 122.11126496 76.42110974 112.40039062 71.38378906 C106.78646109 68.47186038 101.17201158 65.56093461 95.55761719 62.64990234 C93.30761472 61.48324043 91.05761472 60.31657376 88.80761719 59.14990234 C87.69386719 58.57240234 86.58011719 57.99490234 85.43261719 57.39990234 C21.30761719 24.14990234 21.30761719 24.14990234 17.92773438 22.3972168 C15.69417814 21.2391784 13.46045613 20.08145969 11.2265625 18.92407227 C5.97547973 16.2029799 0.72608886 13.47877159 -4.51733398 10.74295044 C-6.98183778 9.45731911 -9.44730278 8.17353724 -11.9128418 6.88989258 C-13.64302802 5.98812588 -15.37182808 5.08370118 -17.10058594 4.17919922 C-31.721502 -3.43009999 -45.46419614 -7.35510144 -61.87988281 -2.78759766 C-73.10164994 1.20516593 -82.32732778 8.73316071 -87.59082031 19.49755859 C-91.44375059 29.01566699 -90.72813361 39.28708124 -90.75488281 49.39990234 C-90.77806284 51.46503251 -90.80343536 53.53013928 -90.83105469 55.59521484 C-90.89345327 60.61353147 -90.92614631 65.63123275 -90.94238281 70.64990234 C-94.24238281 70.31990234 -97.54238281 69.98990234 -100.94238281 69.64990234 C-101.01742882 64.06724879 -101.07140122 58.48489905 -101.10717773 52.90185547 C-101.12211705 51.00889968 -101.14247597 49.1159776 -101.16870117 47.22314453 C-101.41862585 28.69931563 -100.40410437 13.69968079 -87.25488281 -0.60009766 C-60.45259339 -25.65664409 -28.1394048 -15.19767125 0 0 Z " fill="#020202" transform="translate(227.9423828125,61.35009765625)"/>
</svg>
